<?xml version="1.0" encoding="UTF-8" standalone="no"?>
<!DOCTYPE svg PUBLIC "-//W3C//DTD SVG 1.1//EN" "http://www.w3.org/Graphics/SVG/1.1/DTD/svg11.dtd">
<!-- Created with Vectornator (http://vectornator.io/) -->
<svg height="100%" stroke-miterlimit="10" style="fill-rule:nonzero;clip-rule:evenodd;stroke-linecap:round;stroke-linejoin:round;" version="1.1" viewBox="0 0 626 626" width="100%" xml:space="preserve" xmlns="http://www.w3.org/2000/svg" xmlns:vectornator="http://vectornator.io" xmlns:xlink="http://www.w3.org/1999/xlink">
<defs>
<filter color-interpolation-filters="sRGB" filterUnits="userSpaceOnUse" height="126.441" id="Filter" width="56.8334" x="284.346" y="-2.1871">
<feDropShadow dx="-0.237501" dy="29.0059" flood-color="#000000" flood-opacity="0.470387" in="SourceGraphic" result="Shadow" stdDeviation="8.51027"/>
</filter>
<filter color-interpolation-filters="sRGB" filterUnits="userSpaceOnUse" height="132.149" id="Filter_2" width="96.5206" x="107.085" y="-2.13332">
<feDropShadow dx="-0.237501" dy="29.0059" flood-color="#000000" flood-opacity="0.470387" in="SourceGraphic" result="Shadow" stdDeviation="8.51027"/>
</filter>
<filter color-interpolation-filters="sRGB" filterUnits="userSpaceOnUse" height="107.929" id="Filter_3" width="126.113" x="-23.5313" y="125.693">
<feDropShadow dx="-0.237501" dy="29.0059" flood-color="#000000" flood-opacity="0.470387" in="SourceGraphic" result="Shadow" stdDeviation="8.51027"/>
</filter>
<filter color-interpolation-filters="sRGB" filterUnits="userSpaceOnUse" height="126.441" id="Filter_4" width="56.8334" x="284.346" y="551.818">
<feDropShadow dx="-0.237501" dy="29.0059" flood-color="#000000" flood-opacity="0.470387" in="SourceGraphic" result="Shadow" stdDeviation="8.51027"/>
</filter>
<filter color-interpolation-filters="sRGB" filterUnits="userSpaceOnUse" height="133.206" id="Filter_5" width="101.359" x="101.809" y="545.455">
<feDropShadow dx="-0.237501" dy="29.0059" flood-color="#000000" flood-opacity="0.470387" in="SourceGraphic" result="Shadow" stdDeviation="8.51027"/>
</filter>
<filter color-interpolation-filters="sRGB" filterUnits="userSpaceOnUse" height="111.576" id="Filter_6" width="125.096" x="-24.2271" y="443.293">
<feDropShadow dx="-0.237501" dy="29.0059" flood-color="#000000" flood-opacity="0.470387" in="SourceGraphic" result="Shadow" stdDeviation="8.51027"/>
</filter>
<filter color-interpolation-filters="sRGB" filterUnits="userSpaceOnUse" height="65.1521" id="Filter_7" width="118.689" x="-23.6644" y="305.562">
<feDropShadow dx="-0.237501" dy="29.0059" flood-color="#000000" flood-opacity="0.470387" in="SourceGraphic" result="Shadow" stdDeviation="8.51027"/>
</filter>
<filter color-interpolation-filters="sRGB" filterUnits="userSpaceOnUse" height="134.076" id="Filter_8" width="102.549" x="419.823" y="544.938">
<feDropShadow dx="-0.237501" dy="29.0059" flood-color="#000000" flood-opacity="0.470387" in="SourceGraphic" result="Shadow" stdDeviation="8.51027"/>
</filter>
<filter color-interpolation-filters="sRGB" filterUnits="userSpaceOnUse" height="111.098" id="Filter_9" width="124.223" x="524.554" y="443.548">
<feDropShadow dx="-0.237501" dy="29.0059" flood-color="#000000" flood-opacity="0.470387" in="SourceGraphic" result="Shadow" stdDeviation="8.51027"/>
</filter>
<filter color-interpolation-filters="sRGB" filterUnits="userSpaceOnUse" height="65.1517" id="Filter_10" width="118.69" x="530.522" y="305.563">
<feDropShadow dx="-0.237501" dy="29.0059" flood-color="#000000" flood-opacity="0.470387" in="SourceGraphic" result="Shadow" stdDeviation="8.51027"/>
</filter>
<filter color-interpolation-filters="sRGB" filterUnits="userSpaceOnUse" height="107.098" id="Filter_11" width="126.665" x="522.359" y="126.086">
<feDropShadow dx="-0.237501" dy="29.0059" flood-color="#000000" flood-opacity="0.470387" in="SourceGraphic" result="Shadow" stdDeviation="8.51027"/>
</filter>
<filter color-interpolation-filters="sRGB" filterUnits="userSpaceOnUse" height="134.195" id="Filter_12" width="99.9806" x="421.056" y="-2.18193">
<feDropShadow dx="-0.237501" dy="29.0059" flood-color="#000000" flood-opacity="0.470387" in="SourceGraphic" result="Shadow" stdDeviation="8.51027"/>
</filter>
</defs>
<clipPath id="ArtboardFrame">
<rect height="626" width="626" x="0" y="0"/>
</clipPath>
<g clip-path="url(#ArtboardFrame)" id="Calque-2" vectornator:layerName="Calque 2">
<path d="M306.439-0.248442C306.439-3.30616 309.371-0.248442 312.987-0.248442L313.013-0.248442C316.629-0.248442 319.561-3.30616 319.561-0.248442L319.561 67.8561C319.561 70.9138 316.629 73.3926 313.013 73.3926L312.987 73.3926C309.371 73.3926 306.439 70.9138 306.439 67.8561L306.439-0.248442Z" fill="#000000" fill-rule="nonzero" filter="url(#Filter)" stroke="#393939" stroke-linecap="butt" stroke-linejoin="miter" stroke-width="1.15935" vectornator:layerName="Rectangle 1" vectornator:shadowAngle="1.57898" vectornator:shadowColor="#000000" vectornator:shadowOffset="29.0068" vectornator:shadowOpacity="0.470387" vectornator:shadowRadius="17.0205"/>
<path d="M136.187-0.423993L139.399-0.423993C143.019-0.423993 144.745-3.22836 146.383 0L181.259 69.1607C182.897 72.3891 181.683 76.4737 178.548 78.2841L178.537 78.2906C175.402 80.101 171.492 78.9725 169.804 75.7702L129.531 0C127.843-3.2023 132.567-0.423993 136.187-0.423993Z" fill="#000000" fill-rule="nonzero" filter="url(#Filter_2)" stroke="#393939" stroke-linecap="butt" stroke-linejoin="miter" stroke-width="1.15935" vectornator:layerName="Rectangle 3" vectornator:shadowAngle="1.57898" vectornator:shadowColor="#000000" vectornator:shadowOffset="29.0068" vectornator:shadowOpacity="0.470387" vectornator:shadowRadius="17.0205"/>
<path d="M-0.335985 134.812L-0.264225 133.172C-0.105215 129.54-3.14385 124.857 0.0766947 126.679L77.5231 170.446C80.7437 172.268 81.9113 176.3 80.1312 179.452L80.1247 179.464C78.3445 182.616 74.2894 183.696 71.0674 181.877L0.184681 143.652C-3.03735 141.832-0.494994 138.444-0.335985 134.812Z" fill="#000000" fill-rule="nonzero" filter="url(#Filter_3)" stroke="#393939" stroke-linecap="butt" stroke-linejoin="miter" stroke-width="1.15935" vectornator:layerName="Rectangle 4" vectornator:shadowAngle="1.57898" vectornator:shadowColor="#000000" vectornator:shadowOffset="29.0068" vectornator:shadowOpacity="0.470387" vectornator:shadowRadius="17.0205"/>
<path d="M306.439 557.892C306.439 554.858 309.348 552.398 312.936 552.398L313.064 552.398C316.652 552.398 319.561 554.858 319.561 557.892L319.561 626.049C319.561 629.084 316.652 626.049 313.064 626.049L312.936 626.049C309.348 626.049 306.439 629.084 306.439 626.049L306.439 557.892Z" fill="#000000" fill-rule="nonzero" filter="url(#Filter_4)" stroke="#393939" stroke-linecap="butt" stroke-linejoin="miter" stroke-width="1.15935" vectornator:layerName="Rectangle 2" vectornator:shadowAngle="1.57898" vectornator:shadowColor="#000000" vectornator:shadowOffset="29.0068" vectornator:shadowOpacity="0.470387" vectornator:shadowRadius="17.0205"/>
<path d="M178.082 546.875L178.281 546.987C181.382 548.738 182.467 552.685 180.706 555.803L141.049 626.433C139.288 629.551 137.924 626.37 134.36 626.29L130.032 626.194C126.468 626.115 122.537 629.553 124.365 626.474L169.159 549.279C170.987 546.2 174.982 545.123 178.082 546.875Z" fill="#000000" fill-rule="nonzero" filter="url(#Filter_5)" stroke="#393939" stroke-linecap="butt" stroke-linejoin="miter" stroke-width="1.15935" vectornator:layerName="Rectangle 6" vectornator:shadowAngle="1.57898" vectornator:shadowColor="#000000" vectornator:shadowOffset="29.0068" vectornator:shadowOpacity="0.470387" vectornator:shadowRadius="17.0205"/>
<path d="M77.9373 446.843L78.3849 447.593C80.1182 450.498 79.1677 454.315 76.262 456.118L-0.90844 504.008L-0.90844 504.008L-0.854468 492.852C-0.838056 489.46-3.76168 488.509-0.824981 486.757L69.4815 444.757C72.4182 443.004 76.204 443.939 77.9373 446.843Z" fill="#000000" fill-rule="nonzero" filter="url(#Filter_6)" stroke="#393939" stroke-linecap="butt" stroke-linejoin="miter" stroke-width="1.15935" vectornator:layerName="Rectangle 5" vectornator:shadowAngle="1.57898" vectornator:shadowColor="#000000" vectornator:shadowOffset="29.0068" vectornator:shadowOpacity="0.470387" vectornator:shadowRadius="17.0205"/>
<path d="M67.8651 306.242C70.8968 306.218 73.3775 309.107 73.406 312.696L73.407 312.823C73.4355 316.411 71.0009 319.34 67.9693 319.364L-0.214426 319.853C-3.24609 319.877-0.149471 316.995-0.177949 313.407L-0.178958 313.28C-0.207436 309.691-3.26297 306.166-0.23131 306.142L67.8651 306.242Z" fill="#000000" fill-rule="nonzero" filter="url(#Filter_7)" stroke="#393939" stroke-linecap="butt" stroke-linejoin="miter" stroke-width="1.15935" vectornator:layerName="Rectangle 4" vectornator:shadowAngle="1.57898" vectornator:shadowColor="#000000" vectornator:shadowOffset="29.0068" vectornator:shadowOpacity="0.470387" vectornator:shadowRadius="17.0205"/>
<path d="M444.947 546.723L445.597 546.344C448.549 544.625 452.404 545.674 454.207 548.688L500.754 626.472L500.754 626.472L490.884 626.933C487.452 627.093 485.777 629.736 484.01 626.701L442.802 555.33C441.035 552.295 441.995 548.442 444.947 546.723Z" fill="#000000" fill-rule="nonzero" filter="url(#Filter_8)" stroke="#393939" stroke-linecap="butt" stroke-linejoin="miter" stroke-width="1.15935" vectornator:layerName="Rectangle 8" vectornator:shadowAngle="1.57898" vectornator:shadowColor="#000000" vectornator:shadowOffset="29.0068" vectornator:shadowOpacity="0.470387" vectornator:shadowRadius="17.0205"/>
<path d="M547.551 447.516L547.68 447.297C549.486 444.237 553.426 443.216 556.48 445.018L625.795 485.701C628.849 487.503 625.82 488.8 625.822 492.352L625.825 496.935C625.828 500.487 628.797 505.228 625.779 503.366L549.747 456.429C546.729 454.567 545.746 450.577 547.551 447.516Z" fill="#000000" fill-rule="nonzero" filter="url(#Filter_9)" stroke="#393939" stroke-linecap="butt" stroke-linejoin="miter" stroke-width="1.15935" vectornator:layerName="Rectangle 7" vectornator:shadowAngle="1.57898" vectornator:shadowColor="#000000" vectornator:shadowOffset="29.0068" vectornator:shadowOpacity="0.470387" vectornator:shadowRadius="17.0205"/>
<path d="M626.242 306.143C629.262 306.119 626.177 308.989 626.206 312.563L626.207 312.741C626.235 316.316 629.279 319.829 626.259 319.853L558.136 319.754C555.116 319.778 552.645 316.9 552.617 313.325L552.616 313.147C552.587 309.573 555.012 306.656 558.032 306.632L626.242 306.143Z" fill="#000000" fill-rule="nonzero" filter="url(#Filter_10)" stroke="#393939" stroke-linecap="butt" stroke-linejoin="miter" stroke-width="1.15935" vectornator:layerName="Rectangle 3" vectornator:shadowAngle="1.57898" vectornator:shadowColor="#000000" vectornator:shadowOffset="29.0068" vectornator:shadowOpacity="0.470387" vectornator:shadowRadius="17.0205"/>
<path d="M625.957 133.159L625.942 136.268C625.924 139.898 629.135 140.727 625.912 142.465L554.189 181.519C550.966 183.257 546.96 182.084 545.242 178.897L545.235 178.886C543.517 175.7 544.72 171.676 547.922 169.9L625.986 127.085C629.189 125.308 625.975 129.53 625.957 133.159Z" fill="#000000" fill-rule="nonzero" filter="url(#Filter_11)" stroke="#393939" stroke-linecap="butt" stroke-linejoin="miter" stroke-width="1.15935" vectornator:layerName="Rectangle 2" vectornator:shadowAngle="1.57898" vectornator:shadowColor="#000000" vectornator:shadowOffset="29.0068" vectornator:shadowOpacity="0.470387" vectornator:shadowRadius="17.0205"/>
<path d="M490.99 0.171448L491.003 0.171152C494.63 0.0892298 500.865-3.2052 499.115 0.0137413L455.321 77.7212C453.57 80.9401 449.605 82.1002 446.464 80.3122L446.435 80.2957C443.293 78.5078 442.216 74.4769 444.028 71.2925L482.908-0.31943C484.72-3.50382 487.363 0.25337 490.99 0.171448Z" fill="#000000" fill-rule="nonzero" filter="url(#Filter_12)" stroke="#393939" stroke-linecap="butt" stroke-linejoin="miter" stroke-width="1.15935" vectornator:layerName="Rectangle 1" vectornator:shadowAngle="1.57898" vectornator:shadowColor="#000000" vectornator:shadowOffset="29.0068" vectornator:shadowOpacity="0.470387" vectornator:shadowRadius="17.0205"/>
</g>
</svg>
